<?xml version="1.0" encoding="UTF-8" standalone="no"?>
<svg xmlns="http://www.w3.org/2000/svg" xmlns:xlink="http://www.w3.org/1999/xlink" version="1.1" 
viewBox="0 0 671 772">
<title>Clef F (bass)</title>
<g transform="matrix(1 0 0 -1 0 0)">
<path
d="M567 -386c0,29,23,52,52,52s52,-23,52,-52s-23,-52,-52,-52s-52,23,-52,52z
m0,250c0,29,23,52,52,52s52,-23,52,-52s-23,-52,-52,-52s-52,23,-52,52z
m-323,136
c171,0,292,-86,292,-248c0,-263,-264,-415,-517,-521c-2,-2,-5,-3,-8,-3c-6,0,-11,5,-11,11c0,3,1,6,3,8c203,118,415,265,415,494c0,121,-64,237,-174,237c-79,0,-138,-57,-164,-133
c14,8,28,13,43,13c55,0,100,-45,100,-100c0,-58,-44,-107,-100,-107c-60,0,-112,48,-112,107c0,132,103,242,233,242z" />
</g>
</svg>